<svg width="228" height="228" viewBox="0 0 228 228" fill="none" xmlns="http://www.w3.org/2000/svg" >
<g clip-path="url(#clip0_592_2)">
<path d="M113.998 228C111.399 228 108.807 227.912 106.299 227.744C103.707 227.572 101.111 227.309 98.5776 226.962C97.4626 226.812 96.4535 226.662 95.492 226.505C92.6368 226.04 89.7303 225.452 86.8568 224.75C85.8734 224.512 84.9082 224.264 83.9942 224.008C83.6725 223.924 83.3435 223.832 83.0181 223.741C81.6289 223.35 80.2835 222.944 79.0259 222.534C78.9454 222.512 78.8504 222.479 78.7553 222.45C77.6183 222.085 76.4338 221.679 75.2384 221.244C74.2293 220.878 73.2057 220.491 72.1089 220.059C69.824 219.16 67.5354 218.165 65.3053 217.109C64.3767 216.674 63.4079 216.195 62.3403 215.654C62.1502 215.559 61.9565 215.46 61.7664 215.361L61.547 215.248C49.0146 208.74 37.9043 200.057 28.5306 189.444C10.1341 168.612 0 141.817 0 113.998C0 83.5472 11.8597 54.917 33.3893 33.3867C54.9189 11.8565 83.5482 0 113.998 0C144.448 0 173.077 11.8565 194.611 33.3867C216.144 54.917 228 83.5472 228 113.998C228 131.891 223.971 149.019 216.031 164.908C208.456 180.059 197.367 193.582 183.957 204.013C180.806 206.47 177.486 208.78 174.094 210.886C170.654 213.029 167.045 215.014 163.367 216.783C162.548 217.178 161.671 217.588 160.604 218.067L160.501 218.11C160.37 218.169 160.238 218.227 160.106 218.282C159.309 218.637 158.498 218.984 157.697 219.313L157.335 219.467C157.109 219.562 156.896 219.65 156.684 219.73C153.968 220.827 151.23 221.814 148.546 222.659C148.334 222.732 148.119 222.797 147.899 222.863L147.709 222.922C145.479 223.613 143.132 224.256 140.745 224.83C132.047 226.929 123.047 227.993 113.998 227.993L113.998 228ZM113.998 0.731203C83.742 0.731203 55.2991 12.5109 33.9048 33.9059C12.5141 55.2972 0.731179 83.741 0.731179 113.998C0.731179 141.641 10.7995 168.261 29.0827 188.957C38.3979 199.501 49.435 208.13 61.887 214.593L62.1064 214.707C62.2928 214.805 62.4829 214.9 62.673 214.996C63.7369 215.537 64.6984 216.012 65.6197 216.443C67.8352 217.493 70.1091 218.48 72.3794 219.372C73.4689 219.803 74.4852 220.187 75.487 220.549C76.6751 220.98 77.8523 221.383 78.9857 221.748C79.0734 221.777 79.1575 221.803 79.2416 221.829C80.5029 222.238 81.8336 222.64 83.2155 223.031C83.5336 223.123 83.859 223.214 84.1807 223.298C85.0947 223.551 86.0488 223.799 87.025 224.037C89.8839 224.735 92.7684 225.324 95.609 225.781C96.5632 225.938 97.5649 226.088 98.6727 226.238C101.188 226.581 103.769 226.845 106.343 227.013C108.836 227.181 111.41 227.269 113.991 227.269C122.984 227.269 131.923 226.212 140.569 224.128C142.942 223.558 145.271 222.918 147.494 222.231L147.684 222.172C147.896 222.106 148.104 222.044 148.316 221.971C150.989 221.13 153.712 220.151 156.414 219.057C156.626 218.973 156.831 218.889 157.035 218.805L157.485 218.619C158.256 218.301 159.039 217.964 159.814 217.621C159.949 217.562 160.073 217.507 160.201 217.449L160.304 217.405C161.364 216.926 162.238 216.52 163.049 216.129C166.705 214.37 170.292 212.4 173.71 210.268C177.081 208.177 180.378 205.877 183.511 203.439C196.833 193.07 207.852 179.635 215.38 164.583C223.269 148.8 227.272 131.781 227.272 114.002C227.272 83.7447 215.49 55.3009 194.095 33.9095C172.701 12.5109 144.254 0.731203 113.998 0.731203Z" fill="url(#paint0_linear_592_2)"/>
<path d="M100.161 155.794L127.861 162.429L124.648 123.61L100.183 125.635L100.161 155.794Z" fill="#F3A3A6"/>
<path d="M119.976 134.724C134.869 134.724 146.942 122.651 146.942 107.757C146.942 92.864 134.869 80.7905 119.976 80.7905C105.083 80.7905 93.0098 92.864 93.0098 107.757C93.0098 122.651 105.083 134.724 119.976 134.724Z" fill="#F3A3A6"/>
<path d="M148.437 222.315C148.221 222.388 148.009 222.454 147.793 222.52C147.731 222.538 147.669 222.56 147.607 222.578C145.322 223.287 143.004 223.92 140.661 224.483C132.11 226.545 123.178 227.634 113.998 227.634C111.417 227.634 108.858 227.55 106.325 227.378C103.733 227.207 101.166 226.947 98.629 226.6C97.598 226.461 96.5743 226.311 95.5543 226.143C92.6479 225.671 89.7744 225.082 86.9447 224.391C85.9905 224.161 85.04 223.916 84.0931 223.653C83.7677 223.569 83.4424 223.477 83.1206 223.386C81.7862 223.009 80.4591 222.611 79.143 222.183C79.0553 222.158 78.9639 222.128 78.8761 222.099C77.6989 221.719 76.5291 221.317 75.3665 220.896C74.3209 220.52 73.2826 220.125 72.248 219.715C69.9484 218.809 67.6891 217.829 65.4663 216.776L66.3218 212.901L69.2867 199.476L75.7248 170.308L82.2323 140.833L99.3309 141.309H99.3382L100.172 141.334L126.176 142.058L137.553 142.376L148.437 222.315Z" fill="#DADBDC"/>
<path d="M173.904 210.575C170.46 212.721 166.888 214.685 163.21 216.454C162.3 216.893 161.379 217.317 160.454 217.734C160.289 217.807 160.128 217.88 159.964 217.95C159.167 218.304 158.366 218.648 157.558 218.981L157.196 219.134C156.984 219.222 156.772 219.31 156.556 219.394C153.899 220.469 151.193 221.448 148.44 222.315C148.225 222.388 148.013 222.454 147.797 222.52L123.946 161.49L122.334 157.369L117.837 145.857L116.345 142.043L126.191 142.197L137.557 142.376C147.874 143.696 156.428 150.997 159.357 160.974L173.907 210.575L173.904 210.575Z" fill="#DADBDC"/>
<path d="M101.06 120.078C102.018 119.917 102.976 119.753 103.934 119.592C104.16 114.47 104.654 108.756 108.489 105.352C110.602 103.476 113.658 102.383 114.708 99.7581C115.578 97.5828 114.766 94.9102 115.98 92.9067C117.256 90.7972 120.107 90.4206 122.571 90.2671C126.428 90.0295 130.355 89.7955 134.109 90.7095C137.864 91.6271 141.487 93.8866 143.088 97.4036C143.582 98.4858 143.867 99.6521 144.152 100.807C145.114 104.716 146.587 112.152 146.587 112.152C146.587 112.152 146.872 110.613 147.684 107.619C149.34 105.249 151.362 103.063 152.334 100.343C153.504 97.0673 152.988 93.4076 151.841 90.1282C149.234 82.6663 143.187 76.3596 135.656 73.9613C128.121 71.5666 120.996 70.2102 115.366 75.76C114.309 76.802 113.359 77.9646 112.152 78.8274C109.922 80.4251 107.074 80.8273 104.559 81.9314C98.9616 84.3882 93.9019 90.2964 92.6406 96.2776C91.3793 102.259 92.0374 108.456 92.7027 114.536C93.2767 119.778 95.7664 125.624 100.132 128.586C100.311 125.902 100.49 123.222 100.669 120.539L101.056 120.082H101.06V120.078Z" fill="#2F2E43"/>
<path d="M115.987 145.29L115.724 145.722L108.361 157.757L97.4444 175.613L95.2326 179.229L87.1677 192.42C87.1677 192.42 84.5501 196.101 80.1337 200.821L80.1191 200.836C78.5142 202.547 76.6753 204.393 74.6389 206.247C74.6243 206.265 74.6097 206.28 74.5914 206.291C72.1054 208.557 69.3269 210.835 66.3217 212.901C65.0861 213.753 63.8138 214.564 62.5123 215.325C62.2454 215.193 61.9822 215.054 61.719 214.919C49.2085 208.422 38.058 199.67 28.8086 189.199C38.4638 173.778 57.5695 156.485 69.8789 146.186C76.8434 140.354 86.1477 138.157 94.9803 140.27L99.3308 141.309L100.172 141.51L115.987 145.29Z" fill="#DADBDC"/>
<path d="M150.338 141.579C145.596 139.872 133.045 139.864 127.415 141.766C126.322 142.135 125.661 143.246 125.851 144.383L126.074 145.732C125.584 145.659 125.105 145.52 124.651 145.312C123.31 144.698 120.667 143.864 117.998 145.195C116.133 146.124 114.821 147.875 114.36 149.911C113.26 154.781 116.035 157.476 116.035 157.476L119.731 160.945C122.827 163.848 126.205 166.436 129.814 168.667L129.887 168.71L128.571 160.791C127.828 162.097 126.15 162.524 124.874 161.735C121.65 159.739 116.382 155.739 117.022 151.198C117.468 148.032 119.226 147.359 120.915 147.502C122.805 147.663 124.454 148.851 125.262 150.566C125.456 150.975 125.774 151.311 126.169 151.531L127.119 152.05L129.905 168.835C130.029 169.588 130.512 170.239 131.196 170.575C137.747 173.789 144.817 172.121 147.263 171.372C147.823 171.2 148.301 170.831 148.601 170.326L149.128 169.453C149.31 169.153 149.42 168.813 149.457 168.465L151.888 144.036C151.994 142.957 151.354 141.948 150.334 141.579L150.338 141.579Z" fill="url(#paint1_linear_592_2)"/>
<path d="M138.986 143.915C145.07 143.915 150.002 143.45 150.002 142.877C150.002 142.303 145.07 141.839 138.986 141.839C132.903 141.839 127.971 142.303 127.971 142.877C127.971 143.45 132.903 143.915 138.986 143.915Z" fill="#DEDFE0"/>
<path d="M116.982 163.687C122.959 159.113 125.324 152.237 122.264 148.328C119.208 144.42 111.885 144.957 105.904 149.535C103.491 151.33 101.561 153.692 100.285 156.423L75.2202 176.125L85.1716 188.029L108.825 167.339C111.819 166.802 114.616 165.548 116.978 163.687H116.982Z" fill="#F3A3A6"/>
<path d="M100.398 180.804L90.4834 163.365L54.4033 180.344L74.5912 206.294L100.398 180.804Z" fill="#DADBDC"/>
<path opacity="0.1" d="M78.7738 168.875C78.7738 168.875 52.4733 188.131 53.4458 188.025C54.4182 187.919 67.3857 180.786 67.3857 180.786L78.7738 168.875Z" fill="#272223"/>
</g>
<defs>
<linearGradient id="paint0_linear_592_2" x1="114" y1="0" x2="114" y2="228" gradientUnits="userSpaceOnUse">
<stop stop-color="#79A45E"/>
<stop offset="1" stop-color="#A4C291"/>
</linearGradient>
<linearGradient id="paint1_linear_592_2" x1="133.001" y1="140.318" x2="133.001" y2="172.477" gradientUnits="userSpaceOnUse">
<stop stop-color="#79A45E"/>
<stop offset="1" stop-color="#A4C291"/>
</linearGradient>
<clipPath id="clip0_592_2">
<rect width="228" height="228" fill="white"/>
</clipPath>
</defs>
</svg>
