<svg width="29" height="29" viewBox="0 0 29 29" fill="none" xmlns="http://www.w3.org/2000/svg" class='facebook'>
<g clip-path="url(#clip0_574_34)">
<path d="M14.5 0C6.49153 0 0 6.49153 0 14.5C0 22.5085 6.49153 29 14.5 29C22.5085 29 29 22.5085 29 14.5C29 6.49153 22.5085 0 14.5 0ZM14.5 26.7344C7.74294 26.7344 2.26562 21.2571 2.26562 14.5C2.26562 7.74294 7.74294 2.26562 14.5 2.26562C21.2571 2.26562 26.7344 7.74294 26.7344 14.5C26.7344 21.2571 21.2571 26.7344 14.5 26.7344Z" fill="black"/>
<path fill-rule="evenodd" clip-rule="evenodd" d="M17.9409 12.2804H15.4187V10.4395C15.4187 9.8749 16.0027 9.74394 16.2753 9.74394C16.5461 9.74394 17.9047 9.74394 17.9047 9.74394V7.25974L16.0373 7.25C13.4894 7.25 12.9079 9.10232 12.9079 10.29V12.2804H11.0591V14.8398H12.9079C12.9079 18.1259 12.9079 21.75 12.9079 21.75H15.4187C15.4187 21.75 15.4187 18.0887 15.4187 14.8398H17.5515L17.9409 12.2804Z" fill="black"/>
</g>
<defs>
<clipPath id="clip0_574_34">
<rect width="29" height="29" fill="white"/>
</clipPath>
</defs>
</svg>
