<svg width="27" height="27" viewBox="0 0 27 27" fill="none" xmlns="http://www.w3.org/2000/svg" class='github'>
<g clip-path="url(#clip0_574_37)">
<path d="M4.18157 13.7793C3.87613 13.7793 3.59095 13.5844 3.4956 13.2781C2.7202 10.8574 2.60967 6.58043 4.27101 4.6398C3.90145 3.23664 4.10732 1.33821 4.78738 0.320645C4.92998 0.109707 5.16201 -0.0117925 5.4202 -0.000823785C7.35576 0.0835512 8.61548 0.890176 9.72332 1.62846C11.3003 1.21671 12.8351 1.07496 14.6542 1.17452C15.1022 1.20068 15.5452 1.30108 15.9359 1.39052C16.3054 1.47489 16.6843 1.56433 16.9062 1.54324C17.107 1.52214 17.4647 1.27915 17.755 1.07918C18.0241 0.894395 18.3085 0.704551 18.6038 0.572926C19.4475 0.203364 20.2069 0.0354575 21.2304 -0.00166753C21.6261 -0.0126363 21.9636 0.293645 21.9788 0.694426C21.994 1.09521 21.6835 1.42764 21.2827 1.43777C20.4339 1.46983 19.8644 1.59049 19.1834 1.89171C19.0096 1.97102 18.7936 2.11361 18.5667 2.27139C18.1186 2.57683 17.6073 2.9253 17.0369 2.97761C16.5779 3.0198 16.1038 2.91433 15.6026 2.79283C15.2541 2.71352 14.8904 2.62914 14.569 2.60805C12.792 2.50764 11.3155 2.66121 9.78576 3.09827C9.58495 3.15649 9.36895 3.12443 9.19007 3.00377L9.01035 2.88227C8.0451 2.24439 7.13301 1.63268 5.79904 1.46899C5.4666 2.3178 5.42442 3.72602 5.75685 4.55964C5.87329 4.84483 5.78807 5.17643 5.55688 5.37218C4.25413 6.48002 4.09045 10.3976 4.86585 12.8292C4.98735 13.2089 4.77642 13.6148 4.39673 13.7363C4.32248 13.7683 4.24907 13.7785 4.18073 13.7785L4.18157 13.7793ZM9.66595 20.8989C9.61279 20.8989 9.56048 20.8938 9.50732 20.8828C9.11667 20.7985 8.87451 20.4137 8.95888 20.0231L9.00613 19.8172C9.2272 18.8148 9.43307 18.0082 9.67607 17.4074C6.71788 16.7906 4.56042 15.3824 3.53779 13.3895C3.35892 13.036 3.4956 12.5981 3.84913 12.4192C4.20267 12.2403 4.64057 12.377 4.81945 12.7305C5.74251 14.5286 7.91517 15.7469 10.9417 16.1637C11.2319 16.2059 11.469 16.4169 11.5433 16.6961C11.6175 16.9805 11.5121 17.2817 11.2741 17.4555C11.1214 17.5931 10.8421 18.1676 10.4144 20.1243L10.3671 20.3352C10.2929 20.6677 9.99754 20.8997 9.66595 20.8997V20.8989ZM8.33704 26.1774C8.28979 26.1774 8.2476 26.1723 8.20035 26.1613C7.8097 26.082 7.55151 25.7184 7.63082 25.3277C7.76245 24.6578 8.23242 24.3785 8.5117 24.2148C8.70154 24.1043 8.75976 24.0621 8.79098 23.9878C8.95467 23.6394 8.91248 22.7382 8.87535 22.0151C8.85932 21.7089 8.84413 21.3984 8.83823 21.098C7.16676 21.3882 5.3527 21.4777 4.39251 19.8906C4.20267 19.5742 4.08117 19.2527 3.97063 18.9625C3.84407 18.6359 3.7386 18.3507 3.56479 18.1398C3.31167 17.8335 3.35892 17.3804 3.6652 17.1273C3.97148 16.8742 4.42457 16.9164 4.6777 17.2277C4.99917 17.6234 5.16792 18.0664 5.31557 18.4562C5.41007 18.7093 5.50035 18.9464 5.62101 19.1472C6.13738 20.0011 7.26632 19.9488 9.43898 19.5109C9.66595 19.4636 9.89798 19.532 10.0667 19.6847C10.2355 19.8433 10.3199 20.0695 10.2937 20.2964C10.2405 20.7554 10.2726 21.3562 10.2988 21.9367C10.3519 22.9542 10.3992 23.9144 10.0777 24.5945C9.84567 25.0847 9.47104 25.3066 9.22382 25.4484C9.15548 25.4905 9.05001 25.5488 9.02892 25.5749C8.98167 25.9285 8.68129 26.1765 8.33788 26.1765L8.33704 26.1774ZM18.8206 26.0398C18.5835 26.0398 18.3566 25.9242 18.214 25.7133C18.1558 25.618 18.0714 25.5606 17.9237 25.4602C17.6917 25.2965 17.3753 25.0754 17.1382 24.6164C16.7113 23.7777 16.7796 22.5594 16.8479 21.2735C16.8901 20.482 16.9323 19.6653 16.8479 19.0215C16.7745 18.4781 16.5839 18.236 16.3206 17.8985C16.1519 17.6774 15.9569 17.4294 15.8034 17.102C15.703 16.886 15.719 16.6379 15.8354 16.4321C15.9569 16.2262 16.1679 16.0945 16.405 16.0785C19.11 15.8777 21.2464 14.602 22.2741 12.582C22.453 12.2285 22.8858 12.0859 23.2444 12.2656C23.5979 12.4453 23.7405 12.8773 23.5608 13.2359C22.4639 15.4035 20.3706 16.864 17.7229 17.3652C17.96 17.7137 18.192 18.1567 18.2823 18.8367C18.3878 19.6121 18.3405 20.4981 18.2924 21.352C18.2393 22.3434 18.1819 23.4664 18.43 23.9625C18.4933 24.0891 18.5726 24.1473 18.7514 24.2739C18.9464 24.4055 19.2104 24.5903 19.4264 24.9227C19.6424 25.2551 19.5479 25.7032 19.2155 25.9192C19.094 26.0035 18.9573 26.0407 18.8198 26.0407L18.8206 26.0398ZM22.9179 13.6316C22.8546 13.6316 22.7863 13.6215 22.723 13.6055C22.3382 13.495 22.1163 13.0992 22.2277 12.7145C23.0242 9.91408 22.4808 6.27583 21.0886 5.08952C20.8617 4.89461 20.7773 4.58327 20.8777 4.30399C21.2152 3.33874 20.9882 1.88918 20.6035 1.01336C20.4449 0.649707 20.6085 0.221926 20.973 0.064145C21.3375 -0.0936363 21.7645 0.0692074 21.9223 0.433707C22.3652 1.43608 22.6555 3.01221 22.3652 4.32593C24.0848 6.22436 24.4223 10.2744 23.6148 13.111C23.5195 13.4275 23.2351 13.6333 22.9187 13.6333L22.9179 13.6316ZM16.4421 27.011C16.3105 27.011 16.1729 26.9739 16.0523 26.8954C15.9207 26.811 15.5249 26.5579 14.7917 25.4188C14.4593 24.9016 14.2171 22.329 14.0695 17.7618C14.0594 17.3661 14.3699 17.0286 14.7656 17.0185C15.1613 17.0083 15.4988 17.3188 15.5089 17.7146C15.6043 20.7048 15.8253 24.0958 16.0261 24.6755C16.5636 25.5091 16.8176 25.6779 16.8277 25.6829C17.1601 25.8989 17.2597 26.3419 17.0437 26.6794C16.9121 26.8954 16.68 27.0118 16.4429 27.0118L16.4421 27.011ZM10.9738 27.011C10.7367 27.011 10.5046 26.8954 10.3671 26.6785C10.1511 26.3461 10.2515 25.8981 10.5831 25.6821C10.5932 25.677 10.8472 25.5083 11.3847 24.6746C11.5855 24.1 11.8015 20.704 11.9019 17.7137C11.912 17.318 12.2495 17.0016 12.6452 17.0176C13.0409 17.0277 13.3574 17.3661 13.3413 17.761C13.1937 22.3282 12.9507 24.9067 12.6191 25.418C11.8859 26.552 11.4901 26.8102 11.3585 26.8945C11.2429 26.9739 11.1054 27.011 10.9738 27.011Z" fill="black"/>
</g>
<defs>
<clipPath id="clip0_574_37">
<rect width="27" height="27" fill="white"/>
</clipPath>
</defs>
</svg>
