<svg width="28" height="28" viewBox="0 0 28 28" fill="none" xmlns="http://www.w3.org/2000/svg" class='linkedin'>
<g clip-path="url(#clip0_574_29)">
<path d="M14 0C6.26768 0 0 6.26768 0 14C0 21.7323 6.26768 28 14 28C21.7323 28 28 21.7323 28 14C28 6.26768 21.7323 0 14 0ZM14 25.8125C7.47595 25.8125 2.1875 20.5241 2.1875 14C2.1875 7.47595 7.47595 2.1875 14 2.1875C20.5241 2.1875 25.8125 7.47595 25.8125 14C25.8125 20.5241 20.5241 25.8125 14 25.8125Z" fill="black"/>
<path fill-rule="evenodd" clip-rule="evenodd" d="M7.00537 20.9941H9.63037V10.4941H7.00537V20.9941ZM17.5054 10.4941C15.258 10.5318 14.1524 12.1698 14.0054 12.2441V10.4941H11.3804V20.9941H14.0054V14.8691C14.0054 14.6444 14.5591 12.8457 16.6304 13.1191C17.7429 13.1918 18.3427 14.6632 18.3804 14.8691V20.9941L20.9951 21.0061V13.7369C20.9028 12.6876 20.3782 10.5317 17.5054 10.4941ZM8.31787 6.99414C7.59326 6.99414 7.00537 7.58116 7.00537 8.30664C7.00537 9.03213 7.59326 9.61914 8.31787 9.61914C9.04248 9.61914 9.63037 9.03213 9.63037 8.30664C9.63037 7.58116 9.04248 6.99414 8.31787 6.99414Z" fill="black"/>
</g>
<defs>
<clipPath id="clip0_574_29">
<rect width="28" height="28" fill="white"/>
</clipPath>
</defs>
</svg>
