<svg width="28" height="28" viewBox="0 0 28 28" fill="none" xmlns="http://www.w3.org/2000/svg" class='main'>
<path d="M9.75 27.4998H2.66667C1.88427 27.4998 1.25 26.8282 1.25 25.9998V14.6211C1.25 14.2233 1.39926 13.8417 1.66493 13.5604L12.9983 1.56044C13.5515 0.974645 14.4485 0.974645 15.0017 1.56044L26.3351 13.5604C26.6007 13.8417 26.75 14.2233 26.75 14.6211V25.9998C26.75 26.8282 26.1158 27.4998 25.3333 27.4998H18.25M9.75 27.4998H18.25M9.75 27.4998V18.4998C9.75 17.6713 10.3843 16.9998 11.1667 16.9998H16.8333C17.6158 16.9998 18.25 17.6713 18.25 18.4998V27.4998" stroke="black" stroke-linejoin="round"/>
</svg>
