<svg width="36" height="36" viewBox="0 0 36 36" fill="none" xmlns="http://www.w3.org/2000/svg" class='send'>
<path d="M29.76 10.8973L18 19.5523L6.24004 10.8973M4.85254 8.03227C4.45471 8.03227 4.07318 8.1903 3.79188 8.47161C3.51057 8.75291 3.35254 9.13444 3.35254 9.53227V26.4898C3.35254 26.8876 3.51057 27.2691 3.79188 27.5504C4.07318 27.8317 4.45471 27.9898 4.85254 27.9898H31.1475C31.5454 27.9898 31.9269 27.8317 32.2082 27.5504C32.4895 27.2691 32.6475 26.8876 32.6475 26.4898V9.50977C32.6475 9.11194 32.4895 8.73041 32.2082 8.4491C31.9269 8.1678 31.5454 8.00977 31.1475 8.00977H4.85254V8.03227Z" stroke="black" stroke-linecap="round" stroke-linejoin="round"/>
</svg>
